<svg class="svg-icon" style="width: 1em; height: 1em;vertical-align: middle;fill: currentColor;overflow: hidden;" viewBox="0 0 1024 1024" version="1.1" xmlns="http://www.w3.org/2000/svg"><path d="M458.7 218c22.1 67.2 83.8 67.1 105.8 0 7.3-3.8 14.7-15.2 16-24.6 1.3-9.8 0.5-22.9-9.4-22.9-2.2-31.5-19.4-58.2-58.7-58.2-38.4 0-58 23.1-60.4 58.2-9.9 0-10.7 13.1-9.4 22.9 1.3 9.4 8.8 20.7 16.1 24.6z m0 0"  /><path d="M647.4 533.5V342.2c0-33.6-24.4-62.6-58.7-69.8l-25-5.2-52.1 103.9-52.1-103.9-25 5.2c-34.3 7.2-58.7 36.2-58.7 69.8v191.3c0 25.7 20.8 46.6 46.5 46.6v284.3c0 25.7 20.8 46.6 46.5 46.6h85.5c25.7 0 46.5-20.8 46.5-46.6V580c25.8 0 46.6-20.8 46.6-46.5z m0 0M284.8 331.4c13.2 40.1 43.2 50.9 65.9 33.6v-22.8c0-24.1 9.7-46.6 25.5-63.8-5.3-20-19.7-35.1-46.6-35.1-32 0-48.3 19.2-50.3 48.5-8.3 0-8.9 10.9-7.8 19.1 1 7.8 7.2 17.3 13.3 20.5z m0 0"  /><path d="M397.3 600.6c-27.2-10.2-46.5-36.4-46.5-67.1V415.6L329 459.1l-43.5-86.6-20.9 4.3c-28.6 6-48.9 30.2-48.9 58.2v159.5c0 21.4 17.4 38.8 38.8 38.8v237.1c0 21.4 17.4 38.8 38.8 38.8h71.3c16.4 0 30.3-10.1 36-24.5-1.9-6.5-3.3-13.2-3.3-20.3V600.6z m0 0M672.9 365c22.8 17.3 52.7 6.5 65.9-33.6 6.1-3.2 12.3-12.7 13.3-20.5 1.1-8.2 0.5-19.1-7.8-19.1-2-29.2-18.3-48.5-50.3-48.5-26.9 0-41.3 15.1-46.6 35.1 15.8 17.2 25.5 39.6 25.5 63.8V365z m0 0M759 376.8l-20.9-4.3-43.5 86.6-21.8-43.5v117.9c0 30.7-19.4 56.9-46.5 67.1v263.8c0 7.1-1.4 13.8-3.3 20.3 5.7 14.3 19.6 24.5 36 24.5h71.3c21.4 0 38.8-17.4 38.8-38.8V633.2c21.4 0 38.8-17.4 38.8-38.8V435c0.1-28-20.3-52.2-48.9-58.2z m0 0"  /></svg>